<?xml version="1.0" encoding="utf-8"?>
<!-- Generator: Adobe Illustrator 25.4.1, SVG Export Plug-In . SVG Version: 6.00 Build 0)  -->
<svg version="1.1" id="Layer_1" xmlns="http://www.w3.org/2000/svg" xmlns:xlink="http://www.w3.org/1999/xlink" x="0px" y="0px"
	 viewBox="0 0 69 70" style="enable-background:new 0 0 69 70;" xml:space="preserve">
<style type="text/css">
	.st0{fill:#E0C53A;}
	.st1{fill:#F7F7F7;}
</style>
<desc>Created with Sketch.</desc>
<g>
	<g id="l1y7TgKqDE2HkaOvvkEM6L1">
		<g>
			<path id="p14oV2Bh2Z" class="st0" d="M44.6,58.6c-4-0.6-7.2-1.9-10.1-4c-2.4-1.8-5.2-5.9-5.6-8.1c-0.3-1.8-1.2-0.3-1.3,2.2
				c0,0.7-0.1,1.3-0.3,1.3c-0.7,0-2.4-3.1-3-5.5c-0.4-1.5-0.4-2.2-0.3-4.7c0.1-4,0.9-6.5,2.5-8.8c0.6-0.9,0.6-0.9,0.2-0.9
				c-0.6,0-1.8,0.8-3.3,2c-0.7,0.6-1.3,1-1.4,0.9c-0.2-0.2,0.5-3.6,1.2-5.5c2.8-7.9,9.6-13.8,17.7-15.6c2.5-0.5,7.1-0.8,9.3-0.4
				c2.9,0.5,7.3,2,8.3,2.9c0.4,0.3,0.4,0.4,0,0.5c-0.2,0.1-0.7,0.2-1.1,0.2c-1.4,0-4.7,1.3-6.4,2.5c-0.9,0.6-1.7,1.1-1.8,1.1
				s-0.7-0.3-1.3-0.6c-2.3-1.2-4.8-1.6-7.4-0.9c-3,0.7-5.4,2.3-6.8,4.6C33,22.7,33,23,32.9,24.7c-0.1,1.7-0.1,1.9,0.5,2.8
				c0.9,1.5,2.1,2.8,3.3,3.3c1.5,0.7,3.6,1.2,5,1.2c1.2,0,1.2,0,1.3,0.7c0.1,0.4,0.1,1.6,0.2,2.8c0.3,5.2,3,10.3,7.2,13.5
				c3,2.3,7.4,3.8,11.8,4c1.2,0.1,2.1,0.2,2.1,0.3c0,0.4-2.3,1.1-4.3,1.5c-1.5,0.3-2.6,0.3-4.8,0.2c-4.3-0.2-6.7-0.8-10-2.4
				c-2.4-1.2-3.7-2.1-5.1-3.3c-1.9-1.7-1.2-0.3,1,2.1c2.9,3,7,4.9,12,5.4c1.5,0.1,2.7,0.3,2.8,0.4c0.1,0.1-0.1,0.3-0.5,0.5
				C53.5,58.7,48.1,59.1,44.6,58.6z"/>
			<path id="p1AdOq1m3x" class="st0" d="M56.2,50.1c-0.8-0.3-2.1-1-3.1-1.6c-2.7-1.6-5.8-5.2-5.8-6.7c0-0.7,0-0.7,0.9-0.2
				c0.5,0.3,1.2,0.4,2.5,0.4c1.6,0,2-0.1,2.9-0.6c0.6-0.3,1.2-0.5,1.2-0.5c0,0,0,0.7-0.2,1.4c-0.5,2.4,0.1,4.4,1.7,6.2
				c0.5,0.5,1.2,1.1,1.6,1.4C59.5,50.8,58.3,51,56.2,50.1z"/>
		</g>
	</g>
	<g id="l58DvKeH9IOctbHZ8n1Zz6D">
		<g>
			<path id="p1DOdB5guS" class="st1" d="M59.2,41.9c0-0.1,0.2-0.5,0.4-1c0.9-1.8,1.1-3.2,1-5.6c-0.1-2.2-0.1-2.5-0.8-3.8
				c-1-2-3.2-3.7-5.6-4.3c-0.6-0.1-0.6-0.1,0.7,1.4c1.1,1.2,1.3,1.6,1.2,2c-0.2,0.7-0.2,1.8,0.1,2.1c0.4,0.5,1.7,0.8,2.5,0.5
				c0.4-0.1,0.7-0.2,0.8-0.1c0.2,0.2-2.1,3.2-3.5,4.6c-1.5,1.5-3.8,2.8-5.2,3.1c-1.3,0.2-2.9-0.3-3.7-1.1c-3-3-1.4-12.5,3-18.2
				c1.7-2.3,4.9-4.5,7.5-5.4c2.3-0.8,2.1-0.8,3.8,0.7c2.3,2.1,4,5,5,8.2c0.7,2.2,0.8,6,0.3,8.2c-0.8,3.1-2.8,6-5.6,8
				C59.7,42,59.2,42.2,59.2,41.9z"/>
			<path id="pwfCtPxf7" class="st1" d="M40.7,24.6c-2.1-1-1.5-4.3,0.9-4.6c0.7-0.1,1,0,1.5,0.5c1,0.8,1.2,1.9,0.8,2.9
				c-0.4,0.8-1.4,1.6-2.1,1.6C41.5,25,41,24.8,40.7,24.6z M42.9,22.6c0.4-0.4,0.3-1.2-0.1-1.3c-0.8-0.3-1.5,0.5-1.1,1.2
				C41.9,22.9,42.5,23,42.9,22.6z"/>
		</g>
	</g>
</g>
</svg>
